/* XPM */
static char *_1a816c85933438fa597cb3f909bb518n6inB98eePTjcIT9[] = {
/* columns rows colors chars-per-pixel */
"94 94 9 1 ",
"  c #5A3714",
". c #347D21",
"X c #6B441B",
"o c #C43226",
"O c #E25941",
"+ c #459425",
"@ c #7D9F31",
"# c #9EC238",
"$ c #FFBF99",
/* pixels */
"##############################################################################################",
"##############################################################################################",
"##############################################################################################",
"##############################################################################################",
"##############################################################################################",
"##############################################################################################",
"##############################################################################################",
"##############################################################################################",
"##############################################################################################",
"##############################################################################################",
"##############################################################################################",
"##############################################################################################",
"##############################################################################################",
"##############################################################################################",
"##############################################################################################",
"########################################.###.#################################################",
"#####################################.#...#...################################################",
"###################################....++......######.########################################",
"##################################++.+++++....###OO#...#######################################",
"###################################++++++...####O$oO...#######################################",
"####################################++++++.#####oooo....######################################",
"####################################++++++++##+++oo..++..#####################################",
"#####################################+++++++++++++++++++...###################################",
"###################################+##+++.++##..+++++++....+##################################",
"##################################+++##+..#####.++++++++...###################################",
"##############################..#++++###+ #####..+.++++++#####################################",
"#############################....O++++##X ######...++++#######################################",
"###########################++...O$O++++#X  ####+....+.++######################################",
"##########################.+++++ooo ++##XX #####+.   ..#######################################",
"###########################++++++oO$o####X #######  ##.#######################################",
"###########################.++++++Oooo ##X #######  #...+.####################################",
"############################.++++++oo   XX  ######X ...++++#######.###########################",
"###############################+++++++#     ######X+..++++##+####...##########################",
"############.####################+##+###     #### +++++++##+...#.....#########################",
"#########################################   ++###X$oO +#####........##########################",
"#########################################++++++##Xooo #######..++..###########################",
"#######################################++++++++##X o #####$O##+++#############################",
"######################################++++++++ ##XX  #####OOo+++++############################",
"#############################.#########++++++ X#XX  ####++oooo++++############################",
"############################...#########++++#  XXX  ###+O$ooo++++++###########################",
"###########################....####.###### ##O XXX #####oOoo++.+++..##########################",
"########################++......##+..#### ###oO  X ######oo++  ....###########################",
"######################+++++...O.##++...## ##o$oO X  #######O   ##...##########################",
"#####################++++++++O$O###+....  ###ooo XX ######O$O ####.###########################",
"######################+++++++oOo+#O$O.... ####o#  X ##+###ooo#################################",
"#######################+++++++o+++ooo++++..#####  X #+++# XoO#################################",
"##########################+++++++++o++++++++##### X #..++++###################################",
"#############################++++++++++++++######   #...+++++#################################",
"############################+++++++###+  ########  X #...+++++################################",
"###########################++++++++ ###  ##++##### X ........#################################",
"##########################+++####+    #  #+++++### XX .....###################################",
"###########################+###### . ..   #+++++## XXXX ..####################################",
"##################################......  X++++###XXXX #######################################",
"#################################......    X++####XXX  #######################################",
"##################################....#O$   X#####XX  ########################################",
"###################################.##OooO+  X####OO  ########################################",
"#######################################oo++# XX++X$OO#########################################",
"########################################+++## +++ooo #+#######################################",
"############################################## +++o+++++######################################",
"##############################################  ++++++++######################################",
"###############################################  X++++..######################################",
"###############################################  .+++..#######################################",
"################################################ X....########################################",
"################################################   .##########################################",
"################################################   ###########################################",
"################################################   ###########################################",
"################################################   ###########################################",
"################################################X ############################################",
"############################################### X ############################################",
"###############################################   ############################################",
"##############################################    ############################################",
"############################################## X  ############################################",
"############################################## X  ############################################",
"############################################@  X  #@@#########################################",
"######################################@#@@#@@ XX  @@@@#@######################################",
"#####################################@@@@@@@@  X   @@@@@@#####################################",
"####################################@#@@@@@@ @ @ @ @@@@@@@####################################",
"###################################@@@@@@@@@@@@@@@@@@@@@@@@###################################",
"###################################@@@@@@@@@@@@@@@@@@@@@@@####################################",
"####################################@@@@@@@@@@@@@@@@@@@@######################################",
"#####################################@#@@@@@@#@@@@@@@@@@@#####################################",
"######################################@@@##@#@@@@#@@@##@######################################",
"#######################################@######@####@##########################################",
"##############################################################################################",
"##############################################################################################",
"##############################################################################################",
"##############################################################################################",
"##############################################################################################",
"##############################################################################################",
"##############################################################################################",
"##############################################################################################",
"##############################################################################################",
"##############################################################################################",
"##############################################################################################"
};
