/* XPM */
static char *_5db07bf918c418f8d9459a1633ba666wraGpk5vX1v8sGXP[] = {
/* columns rows colors chars-per-pixel */
"94 94 105 2 ",
"   c #7B7646",
".  c #7B7C43",
"X  c #7C7549",
"o  c #7F794B",
"O  c #817E47",
"+  c #827C4E",
"@  c #847E50",
"#  c #7A863E",
"$  c #7B8B3C",
"%  c #7B9636",
"&  c #7D9E32",
"*  c #7C9439",
"=  c #7F993A",
"-  c #7EA132",
";  c #7D8741",
":  c #7F8C41",
">  c #81963E",
",  c #819C3B",
"<  c #82A433",
"1  c #85A833",
"2  c #8BAD34",
"3  c #92A63E",
"4  c #95AC3F",
"5  c #8EB135",
"6  c #92B536",
"7  c #96BA36",
"8  c #9BBE37",
"9  c #97B23D",
"0  c #99B63C",
"q  c #9CBD3A",
"w  c #9CC037",
"e  c #9EC238",
"r  c #A0C23C",
"t  c #818447",
"y  c #848A44",
"u  c #83824C",
"i  c #868A49",
"p  c #8A8E4C",
"a  c #839144",
"s  c #8C9A44",
"d  c #8D954C",
"f  c #8B9A4A",
"g  c #90944E",
"h  c #868152",
"j  c #8B8555",
"k  c #8D8955",
"l  c #8F8958",
"z  c #928D5B",
"x  c #919553",
"c  c #96915E",
"v  c #98935F",
"b  c #93A246",
"n  c #97A846",
"m  c #98AB43",
"M  c #94A149",
"N  c #9CAC4D",
"B  c #9BB442",
"V  c #9FAB57",
"C  c #A4BF4A",
"Z  c #A7BE51",
"A  c #A8BD53",
"S  c #ABBC5B",
"D  c #979361",
"F  c #9A9561",
"G  c #9E9965",
"H  c #9E9B68",
"J  c #A09C66",
"K  c #A29E69",
"L  c #A5A26C",
"P  c #A9A56F",
"I  c #B1BE65",
"U  c #B1B86D",
"Y  c #A9A670",
"T  c #AEAB74",
"R  c #B1AE76",
"E  c #B2AF78",
"W  c #B4B775",
"Q  c #B3B872",
"!  c #B6B47C",
"~  c #B8B67E",
"^  c #B7B87A",
"/  c #BAB87F",
"(  c #A2C042",
")  c #A6C14B",
"_  c #A8C14F",
"`  c #AEC15C",
"'  c #B0C261",
"]  c #B2C264",
"[  c #B8C172",
"{  c #B9C175",
"}  c #BDC17E",
"|  c #B9B780",
" . c #BBB880",
".. c #BDBB81",
"X. c #BDBC83",
"o. c #BFBE85",
"O. c #C0BF85",
"+. c #C0C183",
"@. c #C2C187",
"#. c #C2C188",
"$. c #C4C389",
"%. c #C7C58B",
"&. c #C8C78D",
"*. c #CAC98E",
"=. c #CCCB91",
/* pixels */
"e e e e e e e e e e e e e e e e e e e e e e e e e e e e e e e e e e e e e e e e e e e e e e e e e e e e e e e e e e e e e e e e e e e e e e e e e e e e e e e e e e e e e e e e e e e e e e ",
"e e e e e e e e e e e e e e e e e e e e e e e e e e e e e e e e e e e e e e e e e e e e e e e e e e e e e e e e e e e e e e e e e e e e e e e e e e e e e e e e e e e e e e e e e e e e e e ",
"e e e e e e e e e e e e e e e e e e e e e e e e e e e e e e e e e e e e e e e e e e e e e e e e e e e e e e e e e e e e e e e e e e e e e e e e e e e e e e e e e e e e e e e e e e e e e e ",
"e e e e e e e e e e e e e e e e e e e e e e e e e e e e e e e e e e e e e e e e e e e e e e e e e e e e e e e e e e e e e e e e e e e e e e e e e e e e e e e e e e e e e e e e e e e e e e ",
"e e e e e e e e e e e e e e e e e e e e e e e e e e e e e e e e e e e e e e e e e e e e e e e e e e e e e e e e e e e e e e e e e e e e e e e e e e e e e e e e e e e e e e e e e e e e e e ",
"e e e e e e e e e e e e e e e e e e e e e e e e e e e e e e e e e e e e e e e e e e e e e e e e e e e e e e e e e e e e e e e e e e e e e e e e e e e e e e e e e e e e e e e e e e e e e e ",
"e e e e e e e e e e e e e e e e e e e e e e e e e e e e e e e e e e e e e e e e e e e e e e e e e e e e e e e e e e e e e e e e e e e e e e e e e e e e e e e e e e e e e e e e e e e e e e ",
"e e e e e e e e e e e e e e e e e e e e e e e e e e e e e e e e e e e e e e e e e e e e e e e e e e e e e e e e e e e e e e e e e e e e e e e e e e e e e e e e e e e e e e e e e e e e e e ",
"e e e e e e e e e e e e e e e e e e e e e e e e e e e e e e e e e e e e e e e e e e e e e e e e e e e e e e e e e e e e e e e e e e e e e e e e e e e e e e e e e e e e e e e e e e e e e e ",
"e e e e e e e e e e e e e e e e e e e e e e e e e e e e e e e e e e e e e e e e e e e e e e e e e e e e e e e e e e e e e e e e e e e e e e e e e e e e e e e e e e e e e e e e e e e e e e ",
"e e e e e e e e e e e e e e e e e e e e e e e e e e e e e e e e e e e e e e e e e e e e e e e e e e e e e e e e e e e e e e e e e e e e e e e e e e e e e e e e e e e e e e e e e e e e e e ",
"e e e e e e e e e e e e e e e e e e e e e e e e e e e e e e e e e e e e e e e e e e e e e e e e e e e e e e e e e e e e e e e e e e e e e e e e e e e e e e e e e e e e e e e e e e e e e e ",
"e e e e e e e e e e e e e e e e e e e e e e e e e e e e e e e e e e e e e e e e e e e e e e e e e e e e e e e e e e e e e e e e e e e e e e e e e e e e e e e e e e e e e e e e e e e e e e ",
"e e e e e e e e e e e e e e e e e e e e e e e e e e e e e e e e e e e e e e e e e e e e e e e e e e e e e e e e e e e e e e e e e e e e e e e e e e e e e e e e e e e e e e e e e e e e e e ",
"e e e e e e e e e e e e e e e e e e e e e e e e e e e e e e e e e e e e e e e e e e e e e e e e e e e e e e e e e e e e e e e e e e e e e e e e e e e e e e e e e e e e e e e e e e e e e e ",
"e e e e e e e e e e e e e e e e e e e e e e e e e e e e e e e e e e e e e e e e e e e e e e e e e e e e e e e e e e e e e e e e e e e e e e e e e e e e e e e e e e e e e e e e e e e e e e ",
"e e e e e e e e e e e e e e e e e e e e e e e e e e e e e e e e e e e e e e e e e e e e e e e e e e e e e e r ( ( ( ( ( ( ( ( r e e e e e e e e e e e e e e e e e e e e e e e e e e e e e e ",
"e e e e e e e e e e e e e e e e e e e e e e e e e e e e e e e e e e e e e e e e e e e e e e e e e e e e e e U ^ ^ ^ ^ ^ ^ ^ / S e e e e e e e e e e e e e e e e e e e e e e e e e e e e e e ",
"e e e e e e e e e e e e e e e e e e e e e e e e e e e e e e e e e e e e e e e e e e e e e e e C C C C C C C Q ~ ~ ~ ~ ~ ~ ~  .I ) ) ) r e e e e e e e e e e e e e e e e e e e e e e e e e e ",
"e e e e e e e e e e e e e e e e e e e e e e e e e e e e e e e e e e e e e e e e e e e e e e r W ! ! ! ! ! !  . . . . . . . . . ...O.} ( e e e e e e e e e e e e e e e e e e e e e e e e e e ",
"e e e e e e e e e e e e e e e e e e e e e e e e e e e e e e e e e e e e e e e ( S S S S S S S ^ ! ! ! ! ~ ~  . . . .! ! ! ! ! ! ! ! ^ I ` r e e e e e e e e e e e e e e e e e e e e e e e e ",
"e e e e e e e e e e e e e e e e e e e e e e e e e e e e e e e e e e e e e e e C ^ ! ! ! ! ! ! ! ! ! ! ! ~  . . . .~ R T T T T T T T R o.} r e e e e e e e e e e e e e e e e e e e e e e e e ",
"e e e e e e e e e e e e e e e e e e e e e e e e e e e e e e e e e e A U U U U Q ! ! ! ! ! ! ! ! ! ! ~ /  . . . .! ! ! ! ! ! ! ! ! ! ! O.@.{ ] e e e e e e e e e e e e e e e e e e e e e e e ",
"e e e e e e e e e e e e e e e e e e e e e e e e e e e e e e e r r r S ! ! ! ! ! ! ! ! ! ! ! ! ! ! ! ~  . . . ./ R R ! ! ! ! ! ! ! ! / O.@.@.{ r r e e e e e e e e e e e e e e e e e e e e e ",
"e e e e e e e e e e e e e e e e e e e e e e e e e e e e e e C Q W W ^ ! ! ! ! ! ! ! ! ! ! ! ! ! ~ /  . . . .~ ~ ! ! ! ! ! ! ! ! ~ o.@.@.@... .} ` e e e e e e e e e e e e e e e e e e e e e ",
"e e e e e e e e e e e e e e e e e e e e e e e e e e e ( ( ( Z ^ ~ ~ ~ ~ ~ ! ~ ! ! ! ! ! ! ! ! ! ~  . . ...../ ~ ~ ! ! ! ! ! ! ~  .O.@.@.@.....@.] ( r e e e e e e e e e e e e e e e e e e e ",
"e e e e e e e e e e e e e e e e e e e e e e e e e e e U W W ^ ~  . . . . .~ ~ ! ! ! ! ! ! ! ! ! ~  . . .o.@.@.o.~ ! ! ! ! ! ! o.&.$.@.@.@.....@.+.} ) e e e e e e e e e e e e e e e e e e e ",
"e e e e e e e e e e e e e e e e e e e e e e e e e ) _ ^ / /  ...............~ ! ! ! ! ! ! ! ! ! ~  . . .o.@.@.@... ...........@.*.$.@.@.o.....@.@.@.) e e e e e e e e e e e e e e e e e e e ",
"e e e e e e e e e e e e e e e e e e e e e e e e e [ @.O.@.@.@.@.@.@.@.@.@.O.../ ! ! ! ! ! ! ! /  . . . .o.@.@.@.@.@.*.*.*.*.*.%.@.@.@..... ...@.@.@.) e e e e e e e e e e e e e e e e e e e ",
"e e e e e e e e e e e e e e e e e e e e e e e B N ^ @.@.@.@.@.@.X.~ X.@.@.@... .| ~ ~ ~ ~ ~ |  . . ...o.O.@.@.@.@.#.%.%.%.%.%.$.@.o.o. . . ...o.O.@.V b q e e e e e e e e e e e e e e e e e ",
"e e e e e e e e e e e e e e e e e e e e e e e N F ~ @.@.@.@.@.@.~ T ~ @.@.@... . . . . . . . . . . ...@.@.@.@.@.@.@.@.@.@.@.@.@.@... . . . . . .o.@.F k q e e e e e e e e e e e e e e e e e ",
"e e e e e e e e e e e e e e e e e e e e e q b g j ! @.@.O./ ~ ~ ~ ~ X.@.@.@... . . . . . .X.o.o.o.o.o.@.@.@.@.@.@.@.@.@.@.O.o.o.o... . . . ...o.O.@.F j M n e e e e e e e e e e e e e e e e ",
"e e e e e e e e e e e e e e e e e e e e q B j + X T O.o.o.R T T ~ @.@.@.@.O... . .........o.@.@.@.@.@.@.@.@.@.@.@.@.@.@.@.o. . . . . . . ...X.@.O.o.D j j k q e e e e e e e e e e e e e e e ",
"e e e e e e e e e e e e e e e e e e e q y i j j h H L R ! ! ! ! ..@.@.@.X... . . ...O.o. ...X.@.@.@.@.@.@.@.@.@.@.@.@.O.X... . . . . . ...o.@.@.! L z j + u q e e e e e e e e e e e e e e e ",
"e e e e e e e e e e e e e e e e e e e q o + j j j c F T R ! ! ! ..@.@.@.X..... . ...@.o.......@.@.@.@.@.@.@.@.@.@.@.@.O.................X.#.@...T F l j X . 0 q e e w e e e e e e e e e e e ",
"e e e e e e e e e e e e e e e e e e e q h j j j j c G ! ! ! ! ! ..@.@.@.@.@.@.o.....@.@.@.@.@.@.@.@.@.@.@.@.@.@.@.@.@.@.@.@.@.@.@.@.#.&.*.*.O.J H F l j X   O a 8 e e e e e e e e e e e e e ",
"e e e e e e e e e e e e e e e e e e 9 4 h h j j j z D T R ! ! ! ..@.@.@.@.@.@.O.X.X.@.@.@.@.@.@.@.@.@.@.@.@.@.@.@.@.@.@.@.@.@.#.$.$.#.O.o.o.! F F c l j X X X y q e e e e e e e e e e e e e ",
"e e e e e e e e e e e e e e e e e q t o X o j j j j j F J ! ! ! ..@.@.@.@.@.@.@.@.@.@.@.@.@.@.@.@.@.@.@.@.@.@.@.@.@.@.@.@.@.@.%.*.*.%.K H H G F z j j j X X X y q e e e e e e e e e e e e e ",
"e e e e e e e e e e e e e e e e e q u o o + h h h j j c F T R R ! o.o.O.@.@.O.o.o.O.@.@.@.o...................X.O.@.@.@.O.o.o.o.X.X. .H F D D F z j h h X X j x q e e e e e e e e e e e e e ",
"e e e e e e e e e e e e e e e e e q k j j h + + + h j j j F F F P ! ! ~ o.O.~ ! ! / @.@.O.! T T T T T T T T T R ..@.@.o.~ ! ! P F F F F F j l F z j o X X + X.{ r e e e e e e e e e e e e e ",
"e e e e e e e e e e e e e e e q 3 s u + j h o + + l z z z F F F K P ! ......~ ! ! ~ ......! E T T T T E ! ~ Y L ! ~ ~ ! Y P P K F F F F F j j z j + D H H L o.} ] ) e e e e e e e e e e e e ",
"e e e e e e e e e e e e e e e q y X X X j h X o + z F F F F F F F F T X.! ! ! ! ! ! ! ! ! ! ! R T T R ! ..@.L H Y T T P F F F F F F F F v j j j @ + E @.@.@.@.@.@.' e e e e e e e e e e e e ",
"e e e e e e e e e e e e e e e q y X @ h j j h + X h j F F F F F F F F F J J D H ! ! ! ! ! ! ! ! ! ! ! ! ~ / ~ ! L J J H F F F F F F F z j + o o D E o.@.@.@.@.@.@.' e e e e e e e e e e e e ",
"e e e e e e e e e e e e e e e q y X j j j j j @ X + @ c F F F F F F z j c F j c ! ~ ~ ~ ! ! ! ! ! ! ! ! ! ! X.X.K F F F F F F F F F v j h + + + K O.O.O.O.@.@.@.@.' e e e e e e e e e e e e ",
"e e e e e e e e e e e e e e e q d j j j j j j z c + X @ h h h h + o @ j c F j F $.&.&.O.! ! ! ! ! ! ! ! ! ! L H h + c F F F F z j j j o @ ! | | ! R R R R ! O.@.@.' e e e e e e e e e e e e ",
"e e e e e e e e e e e e e e q 0 g j j j j j j z F @ + @ @ @ + + + X + j c c l F o.$.$...! ~ / / ~ ! ! ! ! E K F + o c F F F F z j j h @ j X.@.o.! T T T T R O.@.@.' e e e e e e e e e e e e ",
"e e e e e e e e e e e e e e b k j j @ @ @ h j j j c F F c + X + + + h j j l v c z z H H J X.*.*.&.~ ! ! K l v F + X j j j j j @ X X @ ! X.@.X.R ! ! ! ! ! ~ @.@.@.' e e e e e e e e e e e e ",
"e e e e e e e e e e e e e e b j j j @ + + @ h j j z z F v @ + @ @ + h j j j c c z z F F H ! o. .~ T T T F j z z h + h h j j j j j j z  .@.@...T ! ! ~ / /  .....~ S e e e e e e e e e e e e ",
"e e e e e e e e e e e e e e b j j j @ + + @ @ h j + o c F F c j + X + j j j j l F F F F F G G z l l l l j j + o z c + o j j j L X.X.X.@.@.@...T ! ! o.@.@.o.R Y J N e e e e e e e e e e e e ",
"e e e e e e e e e e e e e e b h h h @ + + + + @ h + + j j j j j h + + @ h j j j z z F F F z z @ + + + + + + X X j z j h @ c L ! @.@.@.@.@.@.O.~ / ..~ ~ ~ ! L H z n e e e e e e e e e e e e ",
"e e e e e e e e e e e e e e b + + + + + + + + + + h j X X X o j j j + X h j j j j l F F F l j X X X X X X X X X h j F z X H @.@.@.@.@.@.@.@.@.@.@.@.! T T T F c j b e e e e e e e e e e e e ",
"e e e e e e e e e e e e e e b + + + + + + + + + + @ h h @ X X @ @ @ + + @ h j j j j l l l j j X X X X X X X X X X + + l T E !  .@.@.@.@.@.@.@.@./ ! ! ! ! R z l j b e e e e e e e e e e e e ",
"e e e e e e e e e e e e e e b + + + + + + + + + + + @ j j X X @ @ @ @ @ @ h j j j j j j j j h X X X X X X X X o o o o z X.~ R ~ O.O.O.O.@.@.@.O.~ T ! ! ! T j j j b e e e e e e e e e e e e ",
"e e e e e e e e e e e e e e b + + + + + + + + + X X X j j h j z c c c c c z h h j j j j j h @ X X h h h + X H Y Y Y Y T O.o...~ ! ! ! ! ! @.o.! ! ! ! ! F z h h j b e e e e e e e e e e e e ",
"e e e e e e e e e e e e e e b + + + + + + @ @ o X X X l z z z H H H G F F F j h j j j j h @ + X o j j j h + Y ! ! ~ ~  .@.@.@./ ! ! R R R o. .T ! ! ! T z j @ h j b e e e e e e e e e e e e ",
"e e e e e e e e e e e e e e b + + + + + + @ j + X X X Y E E ! ! ! ! P F F F D z h @ @ + X X X h j j l v L R ! ! ! ~ o.@.@.@.@.&.=.=.*.~ ! R ! ! ! ! F z v c j j j b e e e e e e e e e e e e ",
"e e e e e e e e e e e e e e b + p p + + + @ h + X h j E ! ! ! ! ! ! T K H F c z @ + + X X X X j j j l F L R ! ! ! ~ o.O.@.@.o.%.=.=.&. .! T T T T T z j c c h j g m e e e e e e e e e e e e ",
"e e e e e e e e e e e e e e b u 4 q O X + @ @ o X L ! ! ! ! ! ! ! ! ! ! K D h @ @ + X X X X X j j j l F F G R ! ! ~ !  .@.X.~ ~ ~ ~ ~ ~ ! T L l l l j j j j h p q e e e e e e e e e e e e e ",
"e e e e e e e e e e e e e e 9 b q q . X o + + o X Y ! ...... .!  ... .! K F K K K H j + X X X j j j l F F F L Y Y Y ! ~ ../ ! ! ! T Y Y P F c j j j j h a y + i 2 7 e e e e e e e e e e e e ",
"e e e e e e e e e e e e e e e e e q . X X X + o X Y ~ O.@.@.o.~ ..@...! K J ..@.@.~ F j X X X j j j l F F F F F F H ! ! ! ! ! ! ! K F F v @ @ j j j j h = % + t & 5 e e e e e e e e e e e e ",
"e e e e e e e e e e e e e e e e e q i + + + + o X D K ~ X.@.O.X....... .E R o.O.X.~ Y c o X X + + h j l z z F F F G L P P P P P P H F F v @ @ h h h h u = = $ * & 5 e e e e e e e e e e e e ",
"e e e e e e e e e e e e e e e e w q p h @ + + o X h l ! / O.@.@...~ X.@.@.@.@.o.~ ! ! H + X X X X + + + h j c F F F F F F F F F F F F F c u + + + + + u % & & & & 5 e e e e e e e e e e e e ",
"e e e e e e e e e e e e e e e w 2 1 , > h h + o X z F O.%. ./ / ..o.@.@.@.@. . .o.X.! K h + + X X X X X + @ h j c F z l l c F c l l l j j = * + + + * = & & & & & 5 e e e e e e e e e e e e ",
"e e e e e e e e e e e e e e e 8 1 & & = h j @ + X z F O.$. .~ R ~ @.@.@.@.O./ /  .~ E H j @ + X X X X X + @ @ @ z c j j j z F z j j h u t % * + + u = & & & & - < 6 e e e e e e e e e e e e ",
"e e e e e e e e e e e e e e e 8 1 & & = h j j j j j l H L #.~ l L @.@.@.@.@.@.! c z z l j o X X X X X h j j @ @ j j j j j j j j j j j = %     X $ % & & & & & < 7 w e e e e e e e e e e e e ",
"e e e e e e e e e e e e e e e 8 1 & & = h h j h j j j F J ..! j L #.#.#.o.....E l j j j j o X X X X X h j j @ @ h j j j j h j h j j i = %       $ & < < - - < 2 w e e e e e e e e e e e e e ",
"e e e e e e e e e e e e e e e 8 1 & & %   . = $ X h j F F j j v R *.*.&.P H H F j j j j j o X X X X X X o @ @ @ + @ j j j a = a j h u = %   . & & & 6 8 < < 8 w e e e e e e e e e e e e e e ",
"e e e e e e e e e e e e e e e w 2 1 - & . # & : + j l x x h j F T o.o.X.L F D z j j j j h . .   X X X X o t + + + @ h h h y % a i u o = & ; # - & & 7 w 2 2 w e e e e e e e e e e e e e e e ",
"e e e e e e e e e e e e e e e e e 8 < & & & & f F F v , % u j F F F F F F F j j j j j h + = &   X X X + : & t + + + + + X X X # & .   % - - & & & & 7 e e e e e e e e e e e e e e e e e e e ",
"e e e e e e e e e e e e e e e e e e 6 2 - & & , f j j d f : i z z z z z z z j j j j h @ + ; # # #   X o $ & * : o o o X X . # % & $ $ = - - & & & & 7 e e e e e e e e e e e e e e e e e e e ",
"e e e e e e e e e e e e e e e e e e e 8 - & & & - . X c v , = h j j j j j j j j j h + + + X   % %   X X # & & & . X X X X # & & & & & & & & & & & & 7 e e e e e e e e e e e e e e e e e e e ",
"e e e e e e e e e e e e e e e e e e e e 7 5 & & & % % , , & = u l c z h a > u @ @ + X X X X   % & % % % % & & & % % % % % % & & & & & & < 6 7 7 7 7 8 e e e e e e e e e e e e e e e e e e e ",
"e e e e e e e e e e e e e e e e e e e e e 7 - - & & & & & & = u l F z h , = u + + + X         % & & & & & & & & & & & & & & & - - - - - < 8 w e e e e e e e e e e e e e e e e e e e e e e e ",
"e e e e e e e e e e e e e e e e e e e e e e 8 2 - - & & & & & % f F c l , = u t % * X # % % % & & & & & & & & & & & & & & & & 2 7 1 & - - < 2 e e e e e e e e e e e e e e e e e e e e e e e ",
"e e e e e e e e e e e e e e e e e e e e e e e 6 < < < - - < < - f v x k = = t ; & %   $ & & & & & & & & & & & & & & & - < - & 5 w 2 < < < < 2 e e e e e e e e e e e e e e e e e e e e e e e ",
"e e e e e e e e e e e e e e e e e e e e e e e e w w 8 < < 7 6 - - = = = & - & & - & & - & & & & & & & & & & & & & & & 1 8 2 & 5 e w 8 8 8 8 w e e e e e e e e e e e e e e e e e e e e e e e ",
"e e e e e e e e e e e e e e e e e e e e e e e e e e w 2 2 8 7 2 < & < 1 - & & & & - 1 < - < 1 - - 1 < - & & < 1 - - < 2 w 6 1 6 e e e e e e e e e e e e e e e e e e e e e e e e e e e e e e ",
"e e e e e e e e e e e e e e e e e e e e e e e e e e e 8 8 e e 8 2 & 2 8 1 & & & & 1 8 5 - 6 8 < < 8 6 - & & 6 8 1 < 7 w e e 8 e e e e e e e e e e e e e e e e e e e e e e e e e e e e e e e ",
"e e e e e e e e e e e e e e e e e e e e e e e e e e e e e e e e 7 5 7 e 6 2 - < 5 6 e 7 5 8 e 6 6 e 8 5 5 5 8 e 6 6 8 e e e e e e e e e e e e e e e e e e e e e e e e e e e e e e e e e e e ",
"e e e e e e e e e e e e e e e e e e e e e e e e e e e e e e e e e e e e e 8 < 1 8 e e e e e e e e e e e e e e e e e e e e e e e e e e e e e e e e e e e e e e e e e e e e e e e e e e e e e ",
"e e e e e e e e e e e e e e e e e e e e e e e e e e e e e e e e e e e e e e 7 7 e e e e e e e e e e e e e e e e e e e e e e e e e e e e e e e e e e e e e e e e e e e e e e e e e e e e e e ",
"e e e e e e e e e e e e e e e e e e e e e e e e e e e e e e e e e e e e e e e e e e e e e e e e e e e e e e e e e e e e e e e e e e e e e e e e e e e e e e e e e e e e e e e e e e e e e e ",
"e e e e e e e e e e e e e e e e e e e e e e e e e e e e e e e e e e e e e e e e e e e e e e e e e e e e e e e e e e e e e e e e e e e e e e e e e e e e e e e e e e e e e e e e e e e e e e ",
"e e e e e e e e e e e e e e e e e e e e e e e e e e e e e e e e e e e e e e e e e e e e e e e e e e e e e e e e e e e e e e e e e e e e e e e e e e e e e e e e e e e e e e e e e e e e e e ",
"e e e e e e e e e e e e e e e e e e e e e e e e e e e e e e e e e e e e e e e e e e e e e e e e e e e e e e e e e e e e e e e e e e e e e e e e e e e e e e e e e e e e e e e e e e e e e e ",
"e e e e e e e e e e e e e e e e e e e e e e e e e e e e e e e e e e e e e e e e e e e e e e e e e e e e e e e e e e e e e e e e e e e e e e e e e e e e e e e e e e e e e e e e e e e e e e ",
"e e e e e e e e e e e e e e e e e e e e e e e e e e e e e e e e e e e e e e e e e e e e e e e e e e e e e e e e e e e e e e e e e e e e e e e e e e e e e e e e e e e e e e e e e e e e e e ",
"e e e e e e e e e e e e e e e e e e e e e e e e e e e e e e e e e e e e e e e e e e e e e e e e e e e e e e e e e e e e e e e e e e e e e e e e e e e e e e e e e e e e e e e e e e e e e e ",
"e e e e e e e e e e e e e e e e e e e e e e e e e e e e e e e e e e e e e e e e e e e e e e e e e e e e e e e e e e e e e e e e e e e e e e e e e e e e e e e e e e e e e e e e e e e e e e ",
"e e e e e e e e e e e e e e e e e e e e e e e e e e e e e e e e e e e e e e e e e e e e e e e e e e e e e e e e e e e e e e e e e e e e e e e e e e e e e e e e e e e e e e e e e e e e e e ",
"e e e e e e e e e e e e e e e e e e e e e e e e e e e e e e e e e e e e e e e e e e e e e e e e e e e e e e e e e e e e e e e e e e e e e e e e e e e e e e e e e e e e e e e e e e e e e e ",
"e e e e e e e e e e e e e e e e e e e e e e e e e e e e e e e e e e e e e e e e e e e e e e e e e e e e e e e e e e e e e e e e e e e e e e e e e e e e e e e e e e e e e e e e e e e e e e ",
"e e e e e e e e e e e e e e e e e e e e e e e e e e e e e e e e e e e e e e e e e e e e e e e e e e e e e e e e e e e e e e e e e e e e e e e e e e e e e e e e e e e e e e e e e e e e e e ",
"e e e e e e e e e e e e e e e e e e e e e e e e e e e e e e e e e e e e e e e e e e e e e e e e e e e e e e e e e e e e e e e e e e e e e e e e e e e e e e e e e e e e e e e e e e e e e e "
};
